<svg xmlns="http://www.w3.org/2000/svg" width="183px" height="67px">
	<g>
		<path style="fill:none;" d="M36.284,19.127l-0.278,1.325c-0.016,0.061-0.028,0.114-0.037,0.159
		c-0.005,0.042-0.008,0.075-0.008,0.101c0,0.067,0.02,0.12,0.061,0.159c0.041,0.042,0.099,0.062,0.175,0.062
		c0.065,0,0.133-0.016,0.204-0.048c0.071-0.032,0.142-0.075,0.212-0.129c0.136-0.122,0.245-0.287,0.326-0.495
		c0.087-0.214,0.131-0.442,0.131-0.682c0-0.436-0.136-0.786-0.408-1.051c-0.272-0.269-0.63-0.403-1.073-0.403
		c-0.231,0-0.443,0.038-0.637,0.115c-0.196,0.077-0.371,0.192-0.526,0.346c-0.209,0.202-0.367,0.438-0.473,0.71
		c-0.104,0.269-0.155,0.57-0.155,0.902c0,0.519,0.149,0.935,0.449,1.249c0.299,0.313,0.704,0.47,1.212,0.47
		c0.215,0,0.431-0.04,0.649-0.12c0.223-0.08,0.428-0.193,0.616-0.341l0.062,0.11c-0.199,0.173-0.41,0.303-0.633,0.389
		c-0.22,0.089-0.45,0.134-0.689,0.134c-0.258,0-0.494-0.039-0.706-0.115c-0.209-0.074-0.396-0.183-0.559-0.327
		c-0.207-0.186-0.36-0.4-0.461-0.643s-0.151-0.521-0.151-0.835c0-0.262,0.034-0.51,0.103-0.744c0.068-0.23,0.168-0.44,0.302-0.629
		c0.193-0.282,0.427-0.494,0.702-0.638c0.275-0.144,0.581-0.216,0.918-0.216c0.22,0,0.431,0.035,0.632,0.105
		c0.19,0.071,0.356,0.17,0.498,0.298c0.171,0.157,0.302,0.337,0.392,0.542c0.093,0.205,0.139,0.427,0.139,0.667
		c0,0.269-0.043,0.515-0.13,0.739c-0.087,0.224-0.209,0.41-0.367,0.557c-0.093,0.083-0.193,0.149-0.302,0.197
		c-0.109,0.048-0.216,0.072-0.322,0.072c-0.13,0-0.229-0.03-0.294-0.091c-0.065-0.061-0.098-0.149-0.098-0.264l0.008-0.086
		c-0.068,0.138-0.153,0.245-0.257,0.322c-0.104,0.08-0.215,0.12-0.334,0.12c-0.212,0-0.373-0.067-0.482-0.202
		c-0.106-0.134-0.159-0.328-0.159-0.581c0-0.371,0.092-0.683,0.277-0.936c0.182-0.25,0.402-0.375,0.661-0.375
		c0.13,0,0.239,0.034,0.326,0.101c0.09,0.07,0.155,0.173,0.196,0.307l0.126-0.307H36.284z M35.79,19.329
		c-0.082-0.083-0.185-0.125-0.311-0.125c-0.209,0-0.383,0.109-0.522,0.326c-0.139,0.221-0.208,0.493-0.208,0.816
		c0,0.186,0.038,0.331,0.115,0.437c0.079,0.103,0.188,0.153,0.326,0.153c0.149,0,0.282-0.059,0.396-0.177
		c0.117-0.116,0.196-0.269,0.236-0.461l0.131-0.605C35.923,19.534,35.869,19.412,35.79,19.329z"/>
		<g>
			<path style="fill:#CACBCD;" d="M69.761,39.735c0.056,0.13-0.122,0.382-0.239,0.443c-0.173-0.069-0.468,0.245-0.637-0.145
			C69.063,39.781,69.358,39.468,69.761,39.735z"/>
			<path style="fill:#CACBCD;" d="M76.491,40.036c0.229,0.199,0.168,0.39-0.065,0.512c-0.056-0.13-0.173-0.069-0.173-0.069
			C76.14,40.219,76.318,39.967,76.491,40.036z"/>
			<path style="fill:#CACBCD;" d="M75.083,41.091c0.056,0.13-0.005,0.321-0.178,0.252c-0.117,0.061-0.178,0.252-0.351,0.184
			C74.558,41.206,74.914,40.702,75.083,41.091z"/>
			<path style="fill:#CACBCD;" d="M81.251,40.094c-0.178,0.252-0.417,0.695-0.824,0.749l-0.173-0.068
			c0.005-0.321,0.295-0.313,0.356-0.504C80.844,40.147,81.078,40.025,81.251,40.094z"/>
			<path style="fill:#CACBCD;" d="M13.438,36.235c0.926,0.152,2.031,0.052,2.541,0.9c1.325,0.74,2.949,0.846,3.801,2.152
			c1.666,1.198,3.22,2.137,5.12,3.213c0.875-0.298,1.441,0.679,2.134,0.954c1.624,0.106,3.356,0.792,4.741,1.341
			c1.97,0.243,4.053,0.746,5.841,1.563c0.412-0.375,0.932-0.169,1.395-0.093c1.282-0.353,2.607,0.388,3.945,0.165
			c3.197-0.239,6.22-0.546,9.305-1.045c1.166-0.291,2.443-0.322,3.557-1.064c0.697-0.046,1.517-0.475,2.382-0.132
			c0.468-0.245,0.997-0.681,1.517-0.475c0.173,0.069,0.112,0.26,0.402,0.267c0.136-1.345,1.526-1.116,2.401-1.415
			c0.519,0.206,1.207,0.802,1.624,0.106c0.122-0.382,0.356-0.504,0.07-0.833l-0.346-0.137c0.295-0.313,1.119-1.063,1.694-0.727
			c0.168,0.39,0.281,0.649,0.688,0.595c0.295-0.313,0.936-0.489,1.338-0.222c-1.704,1.369-3.683,1.767-5.331,3.266
			c-0.529,0.436-0.917-0.794-1.391-0.229c-0.135,1.345-1.357,1.506-2.176,1.935c-0.524,0.115-1.288,0.673-1.685,0.085
			c-0.365,1.146-1.475,1.567-2.35,1.866c-0.454-0.718-1.156-0.351-1.568,0.024c-1.006,1.322-2.443,0.322-3.557,1.064
			c-0.875,0.299-1.98,0.399-2.687,1.087l-0.117,0.061c0.805,0.534,1.624,0.106,2.5-0.193c2.565-0.704,5.237-0.828,7.75-1.983
			c2.275-0.712,4.723-1.355,7.002-2.388c1.465-0.925,3.154-1.331,4.563-2.387c0.988-0.039,1.812-0.788,2.738-0.636
			c0.702-0.367,1.17-0.612,1.812-0.788c0.168,0.39-0.01,0.642-0.36,0.825c-0.529,0.436-1.399,0.414-1.76,1.239
			c-0.819,0.428-1.755,0.918-2.121,2.064c-0.173-0.068-0.29-0.007-0.407,0.054c0.056,0.129,0.112,0.259,0.112,0.259
			c1.152,0.672,1.708-1.689,2.621-0.575c0.702-0.367,1.465-0.925,1.999-1.682c0.407-0.054,0.641-0.176,0.988-0.039
			c1.53-1.437,3.627-1.897,5.331-3.266c0.173,0.068,0.407-0.054,0.52,0.206c0.056,0.129-0.122,0.382-0.239,0.443
			c-2.696,1.729-4.587,3.991-7.222,5.528c-0.309,1.276-1.568,0.024-1.877,1.3c-0.238,0.443-0.997,0.681-0.482,1.208
			c0.112,0.26-0.065,0.512-0.182,0.573c-1.217-0.16-1.245,1.766-2.519,1.476c-0.889,1.261-2.579,1.667-3.871,2.661
			c-2.111,1.422-4.563,2.386-6.903,3.61c-1.109,0.421-2.401,1.415-3.618,1.255c-0.711,1.009-1.853-0.304-2.448,0.644
			c-0.538,1.078-1.638,0.857-2.565,0.705c-0.519-0.206-1.151-0.671-1.624-0.106c-0.182,0.573-0.707,0.688-1.114,0.742
			c-0.641,0.176-1.203-1.122-1.971-0.243c-0.014,0.963-1.001,1.001-1.699,1.048c-1.09-0.862-2.205-0.121-3.309-0.021
			c-1.334-0.099-2.495-0.128-3.824-0.548c-1.699,1.048-3.244-0.532-4.816-0.188c-1.502-0.488-2.958-0.204-4.399-0.883
			c-0.936,0.49-1.788-0.816-2.724-0.327c-1.498-0.809-3.36-0.471-4.563-1.594c-2.836-0.586-5.368-2.127-7.966-3.157
			c-0.333-1.1-1.793-0.496-2.125-1.595c-0.286-0.329-0.688-0.596-1.035-0.733c-0.182,0.573-0.463-0.076-0.753-0.083
			c0.005-0.321-0.637-0.145-0.454-0.718c-0.225-0.519-0.688-0.596-0.974-0.924c-0.051-0.451-0.692-0.274-0.454-0.718
			c-0.749-0.404-0.791-1.497-1.423-1.962c-0.276-0.97-1.189-2.084-0.534-3.224c-0.042-1.092-0.665-2.2,0.159-2.949
			c0.884-0.94,2.167-1.292,3.052-2.233c0.641-0.176,1.395-0.092,1.694-0.727c0.131-1.024,0.557-2.361,1.666-2.782
			c0.005-0.321,0.356-0.504,0.646-0.497C10.826,36.168,12.113,35.495,13.438,36.235z M64.289,48.646
			c-0.117,0.061-0.294,0.313-0.238,0.443s0.29,0.007,0.346,0.137c0.407-0.054,0.875-0.298,0.997-0.681
			C65.113,47.897,64.697,48.592,64.289,48.646z"/>
			<path style="fill:#CACBCD;" d="M71.558,48.498c0.298-0.267,0.746-0.418,0.998-0.412c-0.183,0.573-0.8,1.135-1.496,1.021
			C71.282,48.992,71.342,48.691,71.558,48.498z"/>
		</g>
		<g>
			<path style="fill:#386AB3;" d="M67.695,36.268c0.056,0.13-0.122,0.382-0.239,0.443c-0.173-0.069-0.468,0.245-0.636-0.145
			C66.998,36.314,67.292,36,67.695,36.268z"/>
			<path style="fill:#386AB3;" d="M74.425,36.569c0.229,0.198,0.168,0.389-0.065,0.512c-0.056-0.13-0.173-0.069-0.173-0.069
			C74.074,36.752,74.252,36.5,74.425,36.569z"/>
			<path style="fill:#386AB3;" d="M73.017,37.624c0.056,0.13-0.005,0.321-0.178,0.252c-0.117,0.062-0.178,0.252-0.351,0.184
			C72.492,37.739,72.848,37.234,73.017,37.624z"/>
			<path style="fill:#386AB3;" d="M79.185,36.626c-0.178,0.252-0.417,0.695-0.824,0.75l-0.173-0.069
			c0.004-0.321,0.295-0.313,0.355-0.504C78.778,36.68,79.012,36.558,79.185,36.626z"/>
			<path style="fill:#386AB3;" d="M11.372,32.768c0.926,0.152,2.031,0.052,2.542,0.9c1.324,0.74,2.948,0.846,3.8,2.152
			c1.666,1.198,3.22,2.137,5.12,3.212c0.875-0.298,1.442,0.679,2.134,0.954c1.624,0.106,3.356,0.792,4.741,1.341
			c1.971,0.243,4.053,0.746,5.841,1.563c0.412-0.375,0.931-0.169,1.395-0.093c1.283-0.352,2.607,0.388,3.946,0.166
			c3.196-0.239,6.22-0.547,9.304-1.045c1.166-0.291,2.443-0.322,3.557-1.064c0.697-0.046,1.517-0.475,2.382-0.132
			c0.468-0.245,0.997-0.681,1.517-0.475c0.173,0.069,0.112,0.26,0.402,0.267c0.136-1.344,1.526-1.116,2.401-1.415
			c0.52,0.206,1.208,0.801,1.624,0.105c0.122-0.382,0.355-0.504,0.07-0.833l-0.346-0.137c0.295-0.313,1.119-1.063,1.694-0.727
			c0.168,0.39,0.281,0.649,0.688,0.595c0.295-0.313,0.936-0.489,1.339-0.222c-1.704,1.369-3.684,1.767-5.331,3.266
			c-0.529,0.436-0.917-0.794-1.39-0.228c-0.136,1.344-1.357,1.506-2.176,1.934c-0.524,0.115-1.287,0.673-1.685,0.085
			c-0.365,1.146-1.474,1.567-2.35,1.866c-0.454-0.718-1.156-0.351-1.568,0.024c-1.006,1.322-2.443,0.323-3.557,1.064
			c-0.875,0.298-1.98,0.398-2.687,1.086l-0.117,0.061c0.805,0.535,1.624,0.106,2.5-0.192c2.565-0.705,5.237-0.829,7.751-1.984
			c2.274-0.712,4.722-1.355,7.001-2.388c1.465-0.925,3.155-1.332,4.563-2.386c0.987-0.039,1.812-0.788,2.738-0.636
			c0.702-0.367,1.17-0.612,1.812-0.788c0.168,0.39-0.009,0.642-0.36,0.826c-0.529,0.436-1.399,0.413-1.76,1.238
			c-0.819,0.429-1.755,0.918-2.121,2.064c-0.173-0.069-0.29-0.008-0.407,0.054c0.056,0.129,0.112,0.26,0.112,0.26
			c1.151,0.671,1.708-1.69,2.621-0.575c0.702-0.368,1.465-0.926,1.999-1.682c0.407-0.054,0.641-0.176,0.987-0.039
			c1.531-1.437,3.627-1.897,5.331-3.266c0.173,0.069,0.407-0.054,0.52,0.206c0.056,0.13-0.122,0.382-0.239,0.443
			c-2.696,1.729-4.587,3.991-7.222,5.528c-0.309,1.276-1.568,0.024-1.877,1.3c-0.239,0.443-0.997,0.681-0.482,1.207
			c0.112,0.26-0.066,0.512-0.183,0.573c-1.217-0.16-1.245,1.766-2.518,1.476c-0.89,1.261-2.579,1.667-3.871,2.661
			c-2.111,1.422-4.563,2.386-6.904,3.61c-1.109,0.421-2.401,1.415-3.618,1.255c-0.711,1.009-1.854-0.305-2.448,0.644
			c-0.538,1.077-1.638,0.856-2.564,0.704c-0.52-0.206-1.151-0.671-1.625-0.106c-0.182,0.573-0.707,0.688-1.114,0.742
			c-0.641,0.176-1.203-1.123-1.97-0.243c-0.014,0.962-1.001,1.001-1.699,1.047c-1.09-0.862-2.204-0.121-3.309-0.021
			c-1.334-0.098-2.495-0.128-3.824-0.547c-1.699,1.047-3.244-0.533-4.816-0.188c-1.502-0.488-2.958-0.204-4.4-0.883
			c-0.936,0.49-1.788-0.816-2.724-0.327c-1.498-0.809-3.361-0.472-4.563-1.594c-2.836-0.586-5.368-2.127-7.966-3.157
			c-0.333-1.1-1.792-0.496-2.125-1.595c-0.286-0.328-0.688-0.595-1.034-0.733c-0.183,0.573-0.463-0.076-0.754-0.083
			c0.005-0.321-0.637-0.145-0.454-0.718c-0.225-0.519-0.688-0.595-0.973-0.923c-0.052-0.451-0.693-0.275-0.454-0.718
			c-0.749-0.404-0.791-1.497-1.423-1.962c-0.276-0.97-1.188-2.084-0.534-3.223c-0.042-1.093-0.664-2.2,0.159-2.949
			c0.885-0.94,2.167-1.292,3.052-2.232c0.642-0.176,1.395-0.093,1.694-0.727c0.131-1.024,0.557-2.361,1.666-2.782
			c0.005-0.321,0.356-0.504,0.646-0.497C8.76,32.701,10.047,32.028,11.372,32.768z M62.224,45.179
			c-0.117,0.062-0.295,0.313-0.239,0.443s0.29,0.007,0.346,0.137c0.407-0.054,0.875-0.298,0.997-0.681
			C63.047,44.43,62.631,45.125,62.224,45.179z"/>
			<path style="fill:#386AB3;" d="M69.497,45.02c0.283-0.252,0.752-0.407,0.993-0.4c-0.183,0.573-0.8,1.135-1.496,1.021
			C69.23,45.517,69.269,45.224,69.497,45.02z"/>
		</g>
		<g>
			<path style="fill:#F26539;" d="M36.317,0.044c-10.643-0.711-19.849,7.34-20.56,17.983c-0.24,3.588,0.516,7.013,2.032,10.004
			c0.021,0.041,0.044,0.083,0.07,0.124c0.149,0.306,0.313,0.543,0.545,0.872c0.459,1.067,0.895,1.333,1.169,1.903
			c0.204,0.187,0.714,1.118,1.458,1.47c0.146,0.236,0.388,0.414,0.862,0.888c0.418,0.352,0.593,0.332,0.688,0.616
			c0.091,0.093,0.425,0.449,0.523,0.434c0.188,0.086,0.403,0.227,0.518,0.299c0.16-0.13,0.197,0.203,0.397,0.119
			c0.012-0.021-0.062-0.252-0.07-0.286c-0.082-0.07-0.114-0.224-0.258-0.179c-0.316-0.28-0.377-0.295-0.635-0.636
			c-0.25-0.309-0.474-0.363-0.274-0.76c0.254-0.332,0.321-0.268,0.702-0.256c0.272,0.008,0.724,0.245,1.167,0.532
			c0.099,0.136,0.528,0.477,0.671,0.432c0.027,0.077,0.104-0.151,0.156-0.137l-0.156-0.212c-0.461-0.474-0.875-0.591-0.684-1.356
			c0.195-0.333,0.053-0.264,0.272-0.476c0.672-0.252,1.432-0.171,1.925,0.084c0.172,0.07,0.374,0.143,0.544,0.243
			c0.086,0.036,0.236-0.014,0.323,0.022c0.055,0.063,0.17,0.1,0.227,0.133c0.199,0.102,0.434,0.117,0.6,0.276
			c0.278,0.254,0.624,0.366,0.869,0.677c0.055,0.063,0.117,0.008,0.174,0.041c0.139,0.127,0.313,0.168,0.421,0.323
			c0.113,0.067,0.292,0.049,0.405,0.116c0.027,0.031,0.023,0.09,0.082,0.094c0.26,0.076,0.495,0.092,0.722,0.225
			c0.114,0.066,0.221,0.221,0.396,0.262c-0.002,0.029,0.023,0.09,0.053,0.092c0.377,0.084,0.659,0.28,1.003,0.421
			c0.086,0.035,0.197,0.131,0.311,0.198c0.344,0.141,0.731,0.079,1.082,0.131c0.147,0.01,0.352,0.023,0.382,0.165
			c0.273,0.173,0.57,0.134,0.799,0.238c0.055,0.063,0.139,0.127,0.197,0.131c0.462,0.149,0.914,0.002,1.342,0.208
			c0.288,0.107,0.667,0.162,1,0.037c0.151-0.049,0.354-0.006,0.501,0.004c0.792,0.053,1.606,0.226,2.414,0.043
			c-0.025-0.061,0.064-0.084,0.04-0.145c0.178-0.018,0.323,0.021,0.502-0.025c0.12-0.021,0.272-0.1,0.393-0.15
			c0.125-0.109,1.363,0,1.345-0.179c0.177,0.109,0.785-0.394,0.998-0.347c0.479-0.345,2.148-0.948,2.244-1.053
			c1.247-0.878,3.931-2.721,5.412-5.269l0,0c1.26-1.714,2.517-4.279,2.685-7.812C55.012,9.961,46.96,0.756,36.317,0.044z"/>
			<path style="fill:#F26539;" d="M26.435,34.035c-0.375-0.127-0.121-0.018-0.576-0.025c-0.086,0.314,0.461,0.299,0.442,0.601
			l0.328,0.045c0.186,0.069,0.349,0.165,0.519,0.274l0.421,0.039l-0.109-0.423C27.307,34.547,26.549,33.909,26.435,34.035z"/>
			<path style="fill:#F26539;" d="M30.316,35.781c-0.206-0.085-0.368-0.3-0.627-0.266l-0.389-0.191
			c-0.141-0.075-0.388-0.03-0.496-0.04c-0.086-0.032-0.151,0.044-0.118,0.119c0.163,0.171,0.343,0.353,0.547,0.297
			c0.141,0.161,0.167,0.201,0.621,0.353c0.54,0.082,0.223-0.056,0.374-0.046C31.048,36.242,30.306,35.824,30.316,35.781z"/>
			<path style="fill:#F26539;" d="M32.653,36.705l-0.191-0.062c-0.069-0.025-0.18,0.012-0.23,0.015
			c-0.042-0.009-0.066,0.03-0.046,0.063c0.086,0.068,0.098,0.252,0.188,0.213c0.076,0.064,0.09,0.081,0.308,0.121
			c0.253,0.001,0.182-0.154,0.251-0.16c0.14,0.044,0.023-0.089,0.025-0.109C32.858,36.76,32.769,36.672,32.653,36.705z"/>
			<path style="fill:#F26539;" d="M24.648,35.14l-0.049,0.083c0.27,0.169,0.582,0.341,0.819,0.519
			C25.697,35.124,24.867,35.424,24.648,35.14z"/>
		</g>
		<g>
			<rect x="113.166" y="18.304" style="fill:#386AB3;" width="4.153" height="15.967"/>
			<rect x="116.703" y="23.248" style="fill:#386AB3;" width="5.48" height="3.657"/>
			<path style="fill:#386AB3;" d="M109.248,32.601c-4.565,0-8.267,3.157-8.267,7.794s3.702,7.794,8.267,7.794
			c4.566,0,8.267-3.157,8.267-7.794S113.813,32.601,109.248,32.601z M109.248,44.513c-2.35,0-4.256-1.541-4.256-4.118
			s1.906-4.117,4.256-4.117c2.351,0,4.256,1.54,4.256,4.117S111.598,44.513,109.248,44.513z"/>
			<rect x="94.489" y="19.192" style="fill:#386AB3;" width="10.725" height="3.658"/>
			<path style="fill:#386AB3;" d="M113.166,18.304h-0.796v0.162c0,0,0.796,0.055,0.796,2.006"/>
			<polygon style="fill:#386AB3;" points="98.975,36.088 108.839,20.953 107.675,19.192 105.085,19.192 93.933,36.088 		"/>
			<circle style="fill:#386AB3;" cx="107.675" cy="20.443" r="1.26"/>
			<path style="fill:#386AB3;" d="M138.944,33.263c-4.565,0-8.248,2.494-8.248,7.132s3.702,7.794,8.267,7.794
			s8.267-3.157,8.267-7.794S143.509,33.263,138.944,33.263z M138.963,44.513c-2.351,0-4.256-1.541-4.256-4.118
			s1.906-4.117,4.256-4.117s4.256,1.54,4.256,4.117S141.313,44.513,138.963,44.513z"/>
			<rect x="128.047" y="23.424" style="fill:#386AB3;" width="4.12" height="6.778"/>
			<rect x="145.657" y="18.76" style="fill:#386AB3;" width="4.121" height="5.962"/>
			<polygon style="fill:#386AB3;" points="126.852,33.014 126.852,36.598 135.467,36.598 139.001,35.06 142.71,36.598
			151.178,36.598 151.178,33.014 		"/>
			<rect x="129.321" y="28.022" style="fill:#386AB3;" width="20.751" height="3.437"/>
			<rect x="128.047" y="18.76" style="fill:#386AB3;" width="21.73" height="3.233"/>
			<rect x="128.047" y="23.424" style="fill:#386AB3;" width="21.73" height="3.088"/>
			<circle style="fill:#386AB3;" cx="129.306" cy="30.199" r="1.259"/>
			<g>
				<polygon style="fill:#386AB3;" points="165.857,18.122 176.837,36.738 171.886,36.738 165.857,26.193 159.829,36.738
				154.877,36.738 			"/>
				<path style="fill:#386AB3;" d="M177.914,18.304h-0.796v0.162c0,0,0.796,0.055,0.796,2.006"/>
				<g>
					<rect x="177.914" y="18.304" style="fill:#386AB3;" width="4.27" height="28.16"/>
				</g>
			</g>
		</g>
	</g>
</svg>