<?xml version="1.0" encoding="utf-8"?>
<!-- Generator: Adobe Illustrator 27.2.0, SVG Export Plug-In . SVG Version: 6.00 Build 0)  -->
<svg version="1.1" id="Layer_1" xmlns="http://www.w3.org/2000/svg" xmlns:xlink="http://www.w3.org/1999/xlink" x="0px" y="0px"
	 viewBox="0 0 183 67" style="enable-background:new 0 0 183 67;" xml:space="preserve">
<style type="text/css">
	.st0{fill:none;}
	.st1{fill:#CACBCD;}
	.st2{fill:#386AB3;}
	.st3{fill:#F26539;}
</style>
<g>
	<path class="st0" d="M36.3,21.6L36,22.9c0,0.1,0,0.1,0,0.2c0,0,0,0.1,0,0.1c0,0.1,0,0.1,0.1,0.2c0,0,0.1,0.1,0.2,0.1
		c0.1,0,0.1,0,0.2,0s0.1-0.1,0.2-0.1c0.1-0.1,0.2-0.3,0.3-0.5c0.1-0.2,0.1-0.4,0.1-0.7c0-0.4-0.1-0.8-0.4-1.1
		c-0.3-0.3-0.6-0.4-1.1-0.4c-0.2,0-0.4,0-0.6,0.1c-0.2,0.1-0.4,0.2-0.5,0.3c-0.2,0.2-0.4,0.4-0.5,0.7c-0.1,0.3-0.2,0.6-0.2,0.9
		c0,0.5,0.1,0.9,0.4,1.2c0.3,0.3,0.7,0.5,1.2,0.5c0.2,0,0.4,0,0.6-0.1c0.2-0.1,0.4-0.2,0.6-0.3l0.1,0.1c-0.2,0.2-0.4,0.3-0.6,0.4
		c-0.2,0.1-0.5,0.1-0.7,0.1c-0.3,0-0.5,0-0.7-0.1c-0.2-0.1-0.4-0.2-0.6-0.3c-0.2-0.2-0.4-0.4-0.5-0.6s-0.2-0.5-0.2-0.8
		c0-0.3,0-0.5,0.1-0.7c0.1-0.2,0.2-0.4,0.3-0.6c0.2-0.3,0.4-0.5,0.7-0.6c0.3-0.1,0.6-0.2,0.9-0.2c0.2,0,0.4,0,0.6,0.1
		c0.2,0.1,0.4,0.2,0.5,0.3c0.2,0.2,0.3,0.3,0.4,0.5c0.1,0.2,0.1,0.4,0.1,0.7c0,0.3,0,0.5-0.1,0.7s-0.2,0.4-0.4,0.6
		c-0.1,0.1-0.2,0.1-0.3,0.2c-0.1,0-0.2,0.1-0.3,0.1c-0.1,0-0.2,0-0.3-0.1c-0.1-0.1-0.1-0.1-0.1-0.3l0-0.1c-0.1,0.1-0.2,0.2-0.3,0.3
		c-0.1,0.1-0.2,0.1-0.3,0.1c-0.2,0-0.4-0.1-0.5-0.2c-0.1-0.1-0.2-0.3-0.2-0.6c0-0.4,0.1-0.7,0.3-0.9c0.2-0.2,0.4-0.4,0.7-0.4
		c0.1,0,0.2,0,0.3,0.1c0.1,0.1,0.2,0.2,0.2,0.3l0.1-0.3C36.1,21.6,36.3,21.6,36.3,21.6z M35.8,21.8c-0.1-0.1-0.2-0.1-0.3-0.1
		c-0.2,0-0.4,0.1-0.5,0.3c-0.1,0.2-0.2,0.5-0.2,0.8c0,0.2,0,0.3,0.1,0.4c0.1,0.1,0.2,0.2,0.3,0.2c0.1,0,0.3-0.1,0.4-0.2
		c0.1-0.1,0.2-0.3,0.2-0.5l0.1-0.6C35.9,22,35.9,21.9,35.8,21.8z"/>
	<g>
		<path class="st1" d="M69.8,42.2c0.1,0.1-0.1,0.4-0.2,0.4c-0.2-0.1-0.5,0.2-0.6-0.1C69.1,42.3,69.4,41.9,69.8,42.2z"/>
		<path class="st1" d="M76.5,42.5c0.2,0.2,0.2,0.4-0.1,0.5c-0.1-0.1-0.2-0.1-0.2-0.1C76.1,42.7,76.3,42.4,76.5,42.5z"/>
		<path class="st1" d="M75.1,43.6c0.1,0.1,0,0.3-0.2,0.3c-0.1,0.1-0.2,0.3-0.4,0.2C74.6,43.7,74.9,43.2,75.1,43.6z"/>
		<path class="st1" d="M81.3,42.6c-0.2,0.3-0.4,0.7-0.8,0.7l-0.2-0.1c0-0.3,0.3-0.3,0.4-0.5C80.8,42.6,81.1,42.5,81.3,42.6z"/>
		<path class="st1" d="M13.4,38.7c0.9,0.2,2,0.1,2.5,0.9c1.3,0.7,2.9,0.8,3.8,2.2c1.7,1.2,3.2,2.1,5.1,3.2c0.9-0.3,1.4,0.7,2.1,1
			c1.6,0.1,3.4,0.8,4.7,1.3c2,0.2,4.1,0.7,5.8,1.6c0.4-0.4,0.9-0.2,1.4-0.1c1.3-0.4,2.6,0.4,3.9,0.2c3.2-0.2,6.2-0.5,9.3-1
			c1.2-0.3,2.4-0.3,3.6-1.1c0.7,0,1.5-0.5,2.4-0.1c0.5-0.2,1-0.7,1.5-0.5c0.2,0.1,0.1,0.3,0.4,0.3c0.1-1.3,1.5-1.1,2.4-1.4
			c0.5,0.2,1.2,0.8,1.6,0.1c0.1-0.4,0.4-0.5,0.1-0.8l-0.3-0.1c0.3-0.3,1.1-1.1,1.7-0.7c0.2,0.4,0.3,0.6,0.7,0.6
			c0.3-0.3,0.9-0.5,1.3-0.2c-1.7,1.4-3.7,1.8-5.3,3.3c-0.5,0.4-0.9-0.8-1.4-0.2c-0.1,1.3-1.4,1.5-2.2,1.9c-0.5,0.1-1.3,0.7-1.7,0.1
			c-0.4,1.1-1.5,1.6-2.3,1.9c-0.5-0.7-1.2-0.4-1.6,0c-1,1.3-2.4,0.3-3.6,1.1c-0.9,0.3-2,0.4-2.7,1.1L46.7,53
			c0.8,0.5,1.6,0.1,2.5-0.2c2.6-0.7,5.2-0.8,7.8-2c2.3-0.7,4.7-1.4,7-2.4c1.5-0.9,3.2-1.3,4.6-2.4c1,0,1.8-0.8,2.7-0.6
			c0.7-0.4,1.2-0.6,1.8-0.8c0.2,0.4,0,0.6-0.4,0.8c-0.5,0.4-1.4,0.4-1.8,1.2c-0.8,0.4-1.8,0.9-2.1,2.1c-0.2-0.1-0.3,0-0.4,0.1
			c0.1,0.1,0.1,0.3,0.1,0.3c1.2,0.7,1.7-1.7,2.6-0.6c0.7-0.4,1.5-0.9,2-1.7c0.4-0.1,0.6-0.2,1,0c1.5-1.4,3.6-1.9,5.3-3.3
			c0.2,0.1,0.4-0.1,0.5,0.2c0.1,0.1-0.1,0.4-0.2,0.4c-2.7,1.7-4.6,4-7.2,5.5c-0.3,1.3-1.6,0-1.9,1.3c-0.2,0.4-1,0.7-0.5,1.2
			c0.1,0.3-0.1,0.5-0.2,0.6c-1.2-0.2-1.2,1.8-2.5,1.5c-0.9,1.3-2.6,1.7-3.9,2.7c-2.1,1.4-4.6,2.4-6.9,3.6c-1.1,0.4-2.4,1.4-3.6,1.3
			c-0.7,1-1.9-0.3-2.4,0.6c-0.5,1.1-1.6,0.9-2.6,0.7c-0.5-0.2-1.2-0.7-1.6-0.1c-0.2,0.6-0.7,0.7-1.1,0.7c-0.6,0.2-1.2-1.1-2-0.2
			c0,1-1,1-1.7,1c-1.1-0.9-2.2-0.1-3.3,0c-1.3-0.1-2.5-0.1-3.8-0.5c-1.7,1-3.2-0.5-4.8-0.2c-1.5-0.5-3-0.2-4.4-0.9
			c-0.9,0.5-1.8-0.8-2.7-0.3c-1.5-0.8-3.4-0.5-4.6-1.6c-2.8-0.6-5.4-2.1-8-3.2c-0.3-1.1-1.8-0.5-2.1-1.6c-0.3-0.3-0.7-0.6-1-0.7
			c-0.2,0.6-0.5-0.1-0.8-0.1c0-0.3-0.6-0.1-0.5-0.7c-0.2-0.5-0.7-0.6-1-0.9C4.7,53.3,4,53.5,4.3,53c-0.7-0.4-0.8-1.5-1.4-2
			c-0.3-1-1.2-2.1-0.5-3.2c0-1.1-0.7-2.2,0.2-2.9c0.9-0.9,2.2-1.3,3.1-2.2c0.6-0.2,1.4-0.1,1.7-0.7c0.1-1,0.6-2.4,1.7-2.8
			c0-0.3,0.4-0.5,0.6-0.5C10.8,38.6,12.1,38,13.4,38.7z M64.3,51.1c-0.1,0.1-0.3,0.3-0.2,0.4s0.3,0,0.3,0.1c0.4-0.1,0.9-0.3,1-0.7
			C65.1,50.4,64.7,51.1,64.3,51.1z"/>
		<path class="st1" d="M71.6,51c0.3-0.3,0.7-0.4,1-0.4c-0.2,0.6-0.8,1.1-1.5,1C71.3,51.5,71.3,51.2,71.6,51z"/>
	</g>
	<g>
		<path class="st2" d="M67.7,38.7c0.1,0.1-0.1,0.4-0.2,0.4c-0.2-0.1-0.5,0.2-0.6-0.1C67,38.8,67.3,38.5,67.7,38.7z"/>
		<path class="st2" d="M74.4,39c0.2,0.2,0.2,0.4-0.1,0.5c-0.1-0.1-0.2-0.1-0.2-0.1C74.1,39.2,74.3,39,74.4,39z"/>
		<path class="st2" d="M73,40.1c0.1,0.1,0,0.3-0.2,0.3c-0.1,0.1-0.2,0.3-0.4,0.2C72.5,40.2,72.8,39.7,73,40.1z"/>
		<path class="st2" d="M79.2,39.1c-0.2,0.3-0.4,0.7-0.8,0.8l-0.2-0.1c0-0.3,0.3-0.3,0.4-0.5C78.8,39.1,79,39,79.2,39.1z"/>
		<path class="st2" d="M11.4,35.2c0.9,0.2,2,0.1,2.5,0.9c1.3,0.7,2.9,0.8,3.8,2.2c1.7,1.2,3.2,2.1,5.1,3.2c0.9-0.3,1.4,0.7,2.1,1
			c1.6,0.1,3.4,0.8,4.7,1.3c2,0.2,4.1,0.7,5.8,1.6c0.4-0.4,0.9-0.2,1.4-0.1c1.3-0.4,2.6,0.4,3.9,0.2c3.2-0.2,6.2-0.5,9.3-1
			c1.2-0.3,2.4-0.3,3.6-1.1c0.7,0,1.5-0.5,2.4-0.1c0.5-0.2,1-0.7,1.5-0.5c0.2,0.1,0.1,0.3,0.4,0.3c0.1-1.3,1.5-1.1,2.4-1.4
			c0.5,0.2,1.2,0.8,1.6,0.1c0.1-0.4,0.4-0.5,0.1-0.8l-0.3-0.1c0.3-0.3,1.1-1.1,1.7-0.7c0.2,0.4,0.3,0.6,0.7,0.6
			c0.3-0.3,0.9-0.5,1.3-0.2c-1.7,1.4-3.7,1.8-5.3,3.3c-0.5,0.4-0.9-0.8-1.4-0.2c-0.1,1.3-1.4,1.5-2.2,1.9c-0.5,0.1-1.3,0.7-1.7,0.1
			c-0.4,1.1-1.5,1.6-2.3,1.9c-0.5-0.7-1.2-0.4-1.6,0c-1,1.3-2.4,0.3-3.6,1.1c-0.9,0.3-2,0.4-2.7,1.1l-0.1,0.1
			c0.8,0.5,1.6,0.1,2.5-0.2c2.6-0.7,5.2-0.8,7.8-2c2.3-0.7,4.7-1.4,7-2.4c1.5-0.9,3.2-1.3,4.6-2.4c1,0,1.8-0.8,2.7-0.6
			c0.7-0.4,1.2-0.6,1.8-0.8c0.2,0.4,0,0.6-0.4,0.8c-0.5,0.4-1.4,0.4-1.8,1.2c-0.8,0.4-1.8,0.9-2.1,2.1c-0.2-0.1-0.3,0-0.4,0.1
			c0.1,0.1,0.1,0.3,0.1,0.3c1.2,0.7,1.7-1.7,2.6-0.6c0.7-0.4,1.5-0.9,2-1.7c0.4-0.1,0.6-0.2,1,0c1.5-1.4,3.6-1.9,5.3-3.3
			c0.2,0.1,0.4-0.1,0.5,0.2c0.1,0.1-0.1,0.4-0.2,0.4c-2.7,1.7-4.6,4-7.2,5.5c-0.3,1.3-1.6,0-1.9,1.3c-0.2,0.4-1,0.7-0.5,1.2
			c0.1,0.3-0.1,0.5-0.2,0.6c-1.2-0.2-1.2,1.8-2.5,1.5c-0.9,1.3-2.6,1.7-3.9,2.7c-2.1,1.4-4.6,2.4-6.9,3.6c-1.1,0.4-2.4,1.4-3.6,1.3
			c-0.7,1-1.9-0.3-2.4,0.6C48,60,46.9,59.8,46,59.6c-0.5-0.2-1.2-0.7-1.6-0.1c-0.2,0.6-0.7,0.7-1.1,0.7c-0.6,0.2-1.2-1.1-2-0.2
			c0,1-1,1-1.7,1c-1.1-0.9-2.2-0.1-3.3,0c-1.3-0.1-2.5-0.1-3.8-0.5c-1.7,1-3.2-0.5-4.8-0.2c-1.5-0.5-3-0.2-4.4-0.9
			c-0.9,0.5-1.8-0.8-2.7-0.3c-1.5-0.8-3.4-0.5-4.6-1.6c-2.8-0.6-5.4-2.1-8-3.2c-0.3-1.1-1.8-0.5-2.1-1.6c-0.3-0.3-0.7-0.6-1-0.7
			c-0.2,0.6-0.5-0.1-0.8-0.1c0-0.3-0.6-0.1-0.5-0.7c-0.2-0.5-0.7-0.6-1-0.9C2.6,49.8,2,50,2.2,49.6c-0.7-0.4-0.8-1.5-1.4-2
			c-0.3-1-1.2-2.1-0.5-3.2c0-1.1-0.7-2.2,0.2-2.9c0.9-0.9,2.2-1.3,3.1-2.2c0.6-0.2,1.4-0.1,1.7-0.7c0.1-1,0.6-2.4,1.7-2.8
			c0-0.3,0.4-0.5,0.6-0.5C8.8,35.2,10,34.5,11.4,35.2z M62.2,47.6c-0.1,0.1-0.3,0.3-0.2,0.4s0.3,0,0.3,0.1c0.4-0.1,0.9-0.3,1-0.7
			C63,46.9,62.6,47.6,62.2,47.6z"/>
		<path class="st2" d="M69.5,47.5c0.3-0.3,0.8-0.4,1-0.4c-0.2,0.6-0.8,1.1-1.5,1C69.2,48,69.3,47.7,69.5,47.5z"/>
	</g>
	<g>
		<path class="st3" d="M36.3,2.5c-10.6-0.7-19.8,7.3-20.6,18c-0.2,3.6,0.5,7,2,10c0,0,0,0.1,0.1,0.1c0.1,0.3,0.3,0.5,0.5,0.9
			c0.5,1.1,0.9,1.3,1.2,1.9c0.2,0.2,0.7,1.1,1.5,1.5c0.1,0.2,0.4,0.4,0.9,0.9c0.4,0.4,0.6,0.3,0.7,0.6c0.1,0.1,0.4,0.4,0.5,0.4
			c0.2,0.1,0.4,0.2,0.5,0.3c0.2-0.1,0.2,0.2,0.4,0.1c0,0-0.1-0.3-0.1-0.3c-0.1-0.1-0.1-0.2-0.3-0.2c-0.3-0.3-0.4-0.3-0.6-0.6
			c-0.2-0.3-0.5-0.4-0.3-0.8c0.3-0.3,0.3-0.3,0.7-0.3c0.3,0,0.7,0.2,1.2,0.5c0.1,0.1,0.5,0.5,0.7,0.4c0,0.1,0.1-0.2,0.2-0.1
			l-0.2-0.2c-0.5-0.5-0.9-0.6-0.7-1.4c0.2-0.3,0.1-0.3,0.3-0.5c0.7-0.3,1.4-0.2,1.9,0.1c0.2,0.1,0.4,0.1,0.5,0.2c0.1,0,0.2,0,0.3,0
			c0.1,0.1,0.2,0.1,0.2,0.1c0.2,0.1,0.4,0.1,0.6,0.3c0.3,0.3,0.6,0.4,0.9,0.7c0.1,0.1,0.1,0,0.2,0c0.1,0.1,0.3,0.2,0.4,0.3
			c0.1,0.1,0.3,0,0.4,0.1c0,0,0,0.1,0.1,0.1c0.3,0.1,0.5,0.1,0.7,0.2c0.1,0.1,0.2,0.2,0.4,0.3c0,0,0,0.1,0.1,0.1
			c0.4,0.1,0.7,0.3,1,0.4c0.1,0,0.2,0.1,0.3,0.2c0.3,0.1,0.7,0.1,1.1,0.1c0.1,0,0.4,0,0.4,0.2c0.3,0.2,0.6,0.1,0.8,0.2
			c0.1,0.1,0.1,0.1,0.2,0.1c0.5,0.1,0.9,0,1.3,0.2c0.3,0.1,0.7,0.2,1,0c0.2,0,0.4,0,0.5,0c0.8,0.1,1.6,0.2,2.4,0
			c0-0.1,0.1-0.1,0-0.1c0.2,0,0.3,0,0.5,0c0.1,0,0.3-0.1,0.4-0.2c0.1-0.1,1.4,0,1.3-0.2c0.2,0.1,0.8-0.4,1-0.3
			c0.5-0.3,2.1-0.9,2.2-1.1c1.2-0.9,3.9-2.7,5.4-5.3l0,0c1.3-1.7,2.5-4.3,2.7-7.8C55,12.4,47,3.2,36.3,2.5z"/>
		<path class="st3" d="M26.4,36.5c-0.4-0.1-0.1,0-0.6,0c-0.1,0.3,0.5,0.3,0.4,0.6l0.3,0c0.2,0.1,0.3,0.2,0.5,0.3l0.4,0L27.5,37
			C27.3,37,26.5,36.4,26.4,36.5z"/>
		<path class="st3" d="M30.3,38.3c-0.2-0.1-0.4-0.3-0.6-0.3l-0.4-0.2c-0.1-0.1-0.4,0-0.5,0c-0.1,0-0.2,0-0.1,0.1
			c0.2,0.2,0.3,0.4,0.5,0.3c0.1,0.2,0.2,0.2,0.6,0.4c0.5,0.1,0.2-0.1,0.4,0C31,38.7,30.3,38.3,30.3,38.3z"/>
		<path class="st3" d="M32.7,39.2l-0.2-0.1c-0.1,0-0.2,0-0.2,0c0,0-0.1,0,0,0.1c0.1,0.1,0.1,0.3,0.2,0.2c0.1,0.1,0.1,0.1,0.3,0.1
			c0.3,0,0.2-0.2,0.3-0.2c0.1,0,0-0.1,0-0.1C32.9,39.2,32.8,39.1,32.7,39.2z"/>
		<path class="st3" d="M24.6,37.6L24.6,37.6c0.2,0.3,0.5,0.4,0.8,0.6C25.7,37.6,24.9,37.9,24.6,37.6z"/>
	</g>
	<g>
		<rect x="113.2" y="20.8" class="st2" width="4.2" height="16"/>
		<rect x="116.7" y="25.7" class="st2" width="5.5" height="3.7"/>
		<path class="st2" d="M109.2,35.1c-4.6,0-8.3,3.2-8.3,7.8s3.7,7.8,8.3,7.8c4.6,0,8.3-3.2,8.3-7.8S113.8,35.1,109.2,35.1z M109.2,47
			c-2.3,0-4.3-1.5-4.3-4.1s1.9-4.1,4.3-4.1c2.4,0,4.3,1.5,4.3,4.1S111.6,47,109.2,47z"/>
		<rect x="94.5" y="21.7" class="st2" width="10.7" height="3.7"/>
		<path class="st2" d="M113.2,20.8h-0.8v0.2c0,0,0.8,0.1,0.8,2"/>
		<polygon class="st2" points="99,38.6 108.8,23.4 107.7,21.7 105.1,21.7 93.9,38.6 		"/>
		<circle class="st2" cx="107.7" cy="22.9" r="1.3"/>
		<path class="st2" d="M138.9,35.7c-4.6,0-8.2,2.5-8.2,7.1s3.7,7.8,8.3,7.8s8.3-3.2,8.3-7.8S143.5,35.7,138.9,35.7z M139,47
			c-2.4,0-4.3-1.5-4.3-4.1s1.9-4.1,4.3-4.1s4.3,1.5,4.3,4.1S141.3,47,139,47z"/>
		<rect x="128" y="25.9" class="st2" width="4.1" height="6.8"/>
		<rect x="145.7" y="21.2" class="st2" width="4.1" height="6"/>
		<polygon class="st2" points="126.9,35.5 126.9,39.1 135.5,39.1 139,37.5 142.7,39.1 151.2,39.1 151.2,35.5 		"/>
		<rect x="129.3" y="30.5" class="st2" width="20.8" height="3.4"/>
		<rect x="128" y="21.2" class="st2" width="21.7" height="3.2"/>
		<rect x="128" y="25.9" class="st2" width="21.7" height="3.1"/>
		<circle class="st2" cx="129.3" cy="32.7" r="1.3"/>
		<g>
			<polygon class="st2" points="165.9,20.6 176.8,39.2 171.9,39.2 165.9,28.7 159.8,39.2 154.9,39.2 			"/>
			<path class="st2" d="M177.9,20.8h-0.8v0.2c0,0,0.8,0.1,0.8,2"/>
			<g>
				<rect x="177.9" y="20.8" class="st2" width="4.3" height="28.2"/>
			</g>
		</g>
	</g>
</g>
</svg>
